<svg id="Layer_1" data-name="Layer 1" xmlns="http://www.w3.org/2000/svg" viewBox="0 0 283.46 283.46"><defs><style>.cls-1{fill:#d1beac;}.cls-2{fill:#00a198;}</style></defs><rect class="cls-1" x="-15.43" y="-14.14" width="314.33" height="311.74"/><path class="cls-2" d="M119.35,135.29V120.37H104.43V105.45H89.52v14.92H74.6V105.45H59.68v14.92H44.76v14.92H59.68V150.2H44.76v14.92H59.68V180H74.6V165.12H89.52V180h14.91V165.12h14.92V150.2H104.43V135.29ZM89.52,150.2H74.6V135.29H89.52Z"/><polygon class="cls-2" points="223.79 120.37 238.71 120.37 238.71 105.45 193.95 105.45 193.95 150.21 223.79 150.21 223.79 165.12 193.95 165.12 193.95 180.04 238.71 180.04 238.71 135.29 208.87 135.29 208.87 120.37 223.79 120.37"/><polygon class="cls-2" points="164.11 105.45 134.27 105.45 134.27 180.04 149.19 180.04 149.19 150.21 164.11 150.21 164.11 135.29 149.19 135.29 149.19 120.37 179.03 120.37 179.03 105.45 164.11 105.45"/><path class="cls-2" d="M14.92,75.61v29.84H29.84V90.53H253.63V195H14.92v14.92H268.55V75.61Z"/><rect class="cls-2" x="14.92" y="180.04" width="14.92" height="14.92"/><rect class="cls-2" x="14.92" y="165.12" width="14.92" height="14.92"/><rect class="cls-2" x="14.92" y="150.2" width="14.92" height="14.92"/><path class="cls-2" d="M29.84,120.37H14.92V150.2H29.84Z"/><rect class="cls-2" x="14.92" y="105.45" width="14.92" height="14.92"/><rect class="cls-2" x="156.65" y="135.29" width="14.92" height="14.92"/></svg>