<svg id="Layer_1" data-name="Layer 1" xmlns="http://www.w3.org/2000/svg" viewBox="0 0 175.68 175.68"><defs><style>.cls-1{fill:#7dc5c8;}.cls-2{fill:#2a3d8a;}.cls-3{fill:#c04491;}</style></defs><path class="cls-1" d="M151.56,75.1V49.61H126.07V24.13H100.58V49.61H75.1V24.13H49.61V49.61H24.13V75.1H49.61v25.48H24.13v25.49H49.61v25.49H75.1V126.07h25.48v25.49h25.49V126.07h25.49V100.58H126.07V75.1Zm-51,25.48H75.1V75.1h25.48Z"/><rect class="cls-2" x="24.13" y="126.07" width="25.49" height="25.49"/><rect class="cls-2" x="24.13" y="75.1" width="25.49" height="25.49"/><rect class="cls-2" x="24.13" y="24.13" width="25.49" height="25.49"/><rect class="cls-2" x="75.1" y="24.13" width="25.49" height="25.49"/><rect class="cls-3" x="126.07" y="24.13" width="25.49" height="25.49"/><rect class="cls-3" x="126.07" y="75.1" width="25.49" height="25.49"/><rect class="cls-3" x="87.84" y="75.1" width="12.74" height="25.49"/><rect class="cls-2" x="75.1" y="75.1" width="12.74" height="25.49"/><rect class="cls-3" x="126.07" y="126.07" width="25.49" height="25.49"/><rect class="cls-3" x="75.1" y="126.07" width="25.49" height="25.49"/></svg>