<svg id="Layer_1" data-name="Layer 1" xmlns="http://www.w3.org/2000/svg" viewBox="0 0 283.46 283.46"><defs><style>.cls-1{fill:#d1beac;}.cls-2{fill:#00a198;}</style></defs><rect class="cls-1" x="-18.28" y="-17.77" width="320.02" height="319.01"/><path class="cls-2" d="M183.06,84V67.44H166.49V50.87H149.92V67.44H133.36V50.87H116.79V67.44H100.22V84h16.57v16.57H100.22v16.57h16.57V133.7h16.57V117.14h16.56V133.7h16.57V117.14h16.57V100.57H166.49V84Zm-33.14,16.57H133.36V84h16.56Z"/><polygon class="cls-2" points="183.13 165.73 199.69 165.73 199.69 149.16 149.99 149.16 149.99 198.86 183.13 198.86 183.13 215.43 149.99 215.43 149.99 232 199.69 232 199.69 182.29 166.56 182.29 166.56 165.73 183.13 165.73"/><polygon class="cls-2" points="116.86 149.16 83.73 149.16 83.73 232 100.29 232 100.29 198.86 116.86 198.86 116.86 182.29 100.29 182.29 100.29 165.73 133.43 165.73 133.43 149.16 116.86 149.16"/><path class="cls-2" d="M216.19,18.38h-165v248.5H232.76V18.38Zm0,33.13v198.8H67.77V34.94H216.19Z"/><rect class="cls-2" x="108.58" y="182.3" width="16.57" height="16.57"/></svg>