<svg id="Layer_1" data-name="Layer 1" xmlns="http://www.w3.org/2000/svg" viewBox="0 0 74.6 74.6"><defs><style>.cls-1{fill:#c04491;}.cls-2{fill:#2a3d8a;}.cls-3{fill:#7dc5c8;}</style></defs><polygon class="cls-1" points="59.68 14.92 74.6 14.92 74.6 0 29.84 0 29.84 44.76 59.68 44.76 59.68 59.68 29.84 59.68 29.84 74.6 74.6 74.6 74.6 29.84 44.76 29.84 44.76 14.92 59.68 14.92"/><polygon class="cls-2" points="0 0 0 74.6 14.92 74.6 14.92 44.76 22.38 44.76 29.84 44.76 37.3 44.76 37.3 29.84 29.84 29.84 22.38 29.84 14.92 29.84 14.92 14.92 44.76 14.92 44.76 0 29.84 0 0 0"/><path class="cls-3" d="M59.68,0H44.76V14.92H29.84V0H14.92V14.92H0V29.84H14.92V44.76H0V59.68H14.92V74.6H29.84V59.68H44.76V74.6H59.68V59.68H74.6V44.76H59.68V29.84H74.6V14.92H59.68ZM44.76,44.76H29.84V29.84H44.76Z"/></svg>